<svg width="12" height="12" viewBox="0 0 12 12" fill="none" xmlns="http://www.w3.org/2000/svg">
<path d="M10.0965 4.35649C10.0681 4.28797 10.02 4.2294 9.95834 4.1882C9.89667 4.14699 9.82417 4.125 9.75 4.125H2.25C2.17583 4.125 2.10333 4.14699 2.04166 4.1882C1.97999 4.22941 1.93193 4.28797 1.90354 4.3565C1.87516 4.42502 1.86774 4.50042 1.88221 4.57317C1.89668 4.64591 1.9324 4.71273 1.98484 4.76517L5.73484 8.51516C5.76966 8.54998 5.811 8.57761 5.8565 8.59645C5.90199 8.6153 5.95076 8.625 6 8.625C6.04925 8.625 6.09801 8.6153 6.14351 8.59645C6.189 8.57761 6.23034 8.54998 6.26516 8.51516L10.0152 4.76517C10.0676 4.71273 10.1033 4.64591 10.1178 4.57316C10.1323 4.50042 10.1248 4.42502 10.0965 4.35649Z" fill="#041133"/>
</svg>
