<svg width="40" height="40" viewBox="0 0 40 40" fill="none" xmlns="http://www.w3.org/2000/svg">
<rect width="40" height="40" rx="10" fill="#423BCE"/>
<path d="M20 23H17V20L26 11L29 14L20 23Z" stroke="white" stroke-width="2" stroke-linecap="round" stroke-linejoin="round"/>
<path d="M23.75 13.25L26.75 16.25" stroke="white" stroke-width="2" stroke-linecap="round" stroke-linejoin="round"/>
<path d="M28.25 19.25V27.5C28.25 27.6989 28.171 27.8897 28.0303 28.0303C27.8897 28.171 27.6989 28.25 27.5 28.25H12.5C12.3011 28.25 12.1103 28.171 11.9697 28.0303C11.829 27.8897 11.75 27.6989 11.75 27.5V12.5C11.75 12.3011 11.829 12.1103 11.9697 11.9697C12.1103 11.829 12.3011 11.75 12.5 11.75H20.75" stroke="white" stroke-width="2" stroke-linecap="round" stroke-linejoin="round"/>
</svg>
