<svg width="18" height="19" viewBox="0 0 18 19" fill="none" xmlns="http://www.w3.org/2000/svg">
<path d="M16.8162 7.34924C16.746 7.12876 16.6109 6.93455 16.4287 6.79198C16.2464 6.6494 16.0254 6.56507 15.7945 6.54999L11.6186 6.25775L10.0695 2.35706C9.9857 2.14141 9.83868 1.95611 9.64774 1.82545C9.45679 1.69479 9.23083 1.62486 8.99946 1.62482H8.99836C8.76735 1.62523 8.54184 1.69534 8.35132 1.82598C8.16079 1.95662 8.01413 2.14172 7.93049 2.35706L6.35835 6.28027L2.20552 6.54999C1.97461 6.56507 1.7536 6.6494 1.57134 6.79198C1.38908 6.93455 1.25402 7.12876 1.18379 7.34924C1.1097 7.57286 1.10466 7.81361 1.16933 8.04013C1.23399 8.26665 1.36536 8.46846 1.54634 8.61926L4.74116 11.3197L3.79084 15.0578C3.72534 15.3096 3.73739 15.5753 3.8254 15.8201C3.91342 16.065 4.0733 16.2775 4.28413 16.43C4.48768 16.5781 4.73109 16.6615 4.98268 16.6693C5.23428 16.6771 5.4824 16.6091 5.69477 16.4739L8.99067 14.386C8.99507 14.3827 8.99946 14.3805 9.00935 14.386L12.5557 16.6327C12.7483 16.7557 12.9734 16.8177 13.2018 16.8107C13.4302 16.8036 13.6511 16.7278 13.8356 16.5931C14.0267 16.4551 14.1716 16.2625 14.2513 16.0407C14.3311 15.8189 14.3421 15.5782 14.2828 15.35L13.2731 11.2664L16.4537 8.61926C16.6347 8.46846 16.766 8.26665 16.8307 8.04013C16.8954 7.81361 16.8903 7.57286 16.8162 7.34924Z" fill="#FFC700"/>
</svg>
