<svg width="18" height="19" viewBox="0 0 18 19" fill="none" xmlns="http://www.w3.org/2000/svg">
<g clip-path="url(#clip0)">
<path d="M9.31015 13.9109L12.8564 16.1576C13.3097 16.4448 13.8725 16.0177 13.738 15.4886L12.7134 11.4581C12.6845 11.3458 12.688 11.2277 12.7233 11.1173C12.7586 11.0069 12.8243 10.9087 12.9129 10.834L16.093 8.18719C16.5108 7.83941 16.2951 7.14595 15.7583 7.11111L11.6054 6.84158C11.4935 6.83359 11.3862 6.79399 11.296 6.72738C11.2058 6.66078 11.1363 6.56991 11.0957 6.46537L9.54688 2.56492C9.50478 2.45396 9.42992 2.35843 9.33224 2.29102C9.23456 2.2236 9.11868 2.1875 9 2.1875C8.88132 2.1875 8.76544 2.2236 8.66777 2.29102C8.57009 2.35843 8.49523 2.45396 8.45312 2.56492L6.90426 6.46537C6.86367 6.56991 6.79423 6.66078 6.70401 6.72738C6.61378 6.79399 6.5065 6.83359 6.39464 6.84158L2.24171 7.11111C1.70486 7.14595 1.4892 7.83941 1.90704 8.18719L5.08709 10.834C5.17571 10.9087 5.24145 11.0069 5.27674 11.1173C5.31204 11.2277 5.31546 11.3458 5.2866 11.4581L4.33641 15.1959C4.175 15.8309 4.85036 16.3434 5.39432 15.9988L8.68985 13.9109C8.78254 13.8519 8.89013 13.8205 9 13.8205C9.10987 13.8205 9.21747 13.8519 9.31015 13.9109V13.9109Z" stroke="#CDCFD6" stroke-width="1.5" stroke-linecap="round" stroke-linejoin="round"/>
</g>
<defs>
<clipPath id="clip0">
<rect width="18" height="18" fill="white" transform="translate(0 0.500001)"/>
</clipPath>
</defs>
</svg>
