<svg width="24" height="24" viewBox="0 0 24 24" fill="none" xmlns="http://www.w3.org/2000/svg">
<path d="M19.5 13.75H4.5C4.08579 13.75 3.75 14.0858 3.75 14.5V18.25C3.75 18.6642 4.08579 19 4.5 19H19.5C19.9142 19 20.25 18.6642 20.25 18.25V14.5C20.25 14.0858 19.9142 13.75 19.5 13.75Z" stroke="#687085" stroke-width="2" stroke-linecap="round" stroke-linejoin="round"/>
<path d="M19.5 5H4.5C4.08579 5 3.75 5.33579 3.75 5.75V9.5C3.75 9.91421 4.08579 10.25 4.5 10.25H19.5C19.9142 10.25 20.25 9.91421 20.25 9.5V5.75C20.25 5.33579 19.9142 5 19.5 5Z" stroke="#687085" stroke-width="2" stroke-linecap="round" stroke-linejoin="round"/>
</svg>
