<svg width="14" height="16" viewBox="0 0 14 16" fill="none" xmlns="http://www.w3.org/2000/svg">
<path fill-rule="evenodd" clip-rule="evenodd" d="M3.98661 1.48667C4.33824 1.13504 4.81516 0.9375 5.31244 0.9375H8.68744C9.18472 0.9375 9.66163 1.13504 10.0133 1.48667C10.3649 1.83831 10.5624 2.31522 10.5624 2.8125V3.1875L12.0616 3.1875C12.0619 3.1875 12.0622 3.1875 12.0624 3.1875C12.0627 3.1875 12.063 3.1875 12.0632 3.1875L13.1873 3.1875C13.6015 3.1875 13.9373 3.52329 13.9373 3.9375C13.9373 4.35171 13.6015 4.6875 13.1873 4.6875H12.8124V14.625C12.8124 14.9731 12.6742 15.3069 12.428 15.5531C12.1819 15.7992 11.848 15.9375 11.4999 15.9375H2.49994C2.15184 15.9375 1.818 15.7992 1.57186 15.5531C1.32572 15.3069 1.18744 14.9731 1.18744 14.625V4.6875L0.812256 4.6875C0.398043 4.6875 0.062256 4.35172 0.0622559 3.93751C0.0622557 3.52329 0.398042 3.1875 0.812256 3.1875L1.93489 3.1875C1.93574 3.1875 1.93659 3.1875 1.93744 3.1875C1.93829 3.1875 1.93914 3.1875 1.93999 3.1875L3.43744 3.1875V2.8125C3.43744 2.31522 3.63498 1.83831 3.98661 1.48667ZM2.68744 4.6875V14.4375H11.3124V4.6875H9.81244H4.18744L2.68744 4.6875ZM9.06244 2.8125V3.1875L4.93744 3.1875V2.8125C4.93744 2.71304 4.97695 2.61766 5.04727 2.54733C5.1176 2.47701 5.21298 2.4375 5.31244 2.4375H8.68744C8.7869 2.4375 8.88228 2.47701 8.9526 2.54733C9.02293 2.61766 9.06244 2.71304 9.06244 2.8125ZM6.06244 7.3125C6.06244 6.89829 5.72665 6.5625 5.31244 6.5625C4.89823 6.5625 4.56244 6.89829 4.56244 7.3125V11.8125C4.56244 12.2267 4.89823 12.5625 5.31244 12.5625C5.72665 12.5625 6.06244 12.2267 6.06244 11.8125V7.3125ZM8.68744 6.5625C9.10165 6.5625 9.43744 6.89829 9.43744 7.3125V11.8125C9.43744 12.2267 9.10165 12.5625 8.68744 12.5625C8.27323 12.5625 7.93744 12.2267 7.93744 11.8125V7.3125C7.93744 6.89829 8.27323 6.5625 8.68744 6.5625Z" fill="#041133"/>
</svg>
